<svg width="320" height="172" viewBox="0 0 320 172" fill="none" xmlns="http://www.w3.org/2000/svg">
<rect y="3" width="320" height="169" rx="15" fill="url(#paint0_linear_1_21)"/>
<g filter="url(#filter0_d_1_21)">
<path d="M137.832 131.32C137.352 130.424 137.048 129.432 136.92 128.344C136.792 127.224 136.728 125.688 136.728 123.736C136.728 121.88 136.472 120.264 135.96 118.888C135.448 117.512 134.392 116.824 132.792 116.824C132.184 116.824 131.576 117.016 130.968 117.4C130.392 117.752 129.96 118.2 129.672 118.744C129.224 119.608 128.92 120.552 128.76 121.576C128.6 122.568 128.52 123.72 128.52 125.032C128.52 125.864 128.568 126.712 128.664 127.576C128.664 127.832 128.68 128.248 128.712 128.824C128.776 129.368 128.808 129.864 128.808 130.312C128.808 132.232 128.136 133.192 126.792 133.192C125.032 133.192 124.104 132.264 124.008 130.408C124.008 129.096 124.024 128.392 124.056 128.296V126.232C124.056 125.08 124.008 123.96 123.912 122.872C123.816 121.784 123.704 120.968 123.576 120.424C123.288 119.368 122.904 118.552 122.424 117.976C121.976 117.4 121.256 117.112 120.264 117.112C118.856 117.112 117.72 117.72 116.856 118.936C116.248 119.896 115.848 121.064 115.656 122.44C115.464 124.2 115.32 125.592 115.224 126.616C115.16 127.608 115.128 128.76 115.128 130.072C115.128 131 114.968 131.752 114.648 132.328C114.36 132.904 113.8 133.192 112.968 133.192C112.36 133.192 111.72 133.032 111.048 132.712C110.408 132.36 110.088 131.896 110.088 131.32C110.088 130.712 110.152 130.104 110.28 129.496C110.568 127.672 110.712 124.408 110.712 119.704C110.712 118.936 110.52 118.2 110.136 117.496C109.784 116.76 109.352 116.392 108.84 116.392C108.712 116.392 108.472 116.456 108.12 116.584C107.8 116.712 107.56 116.776 107.4 116.776C106.984 116.776 106.6 116.584 106.248 116.2C105.928 115.816 105.768 115.496 105.768 115.24C105.768 114.44 106.152 113.768 106.92 113.224C107.72 112.648 108.552 112.36 109.416 112.36C110.6 112.36 111.608 112.728 112.44 113.464C113.272 114.2 113.912 115.224 114.36 116.536C115.096 115.256 116.088 114.232 117.336 113.464C118.584 112.664 119.976 112.264 121.512 112.264C122.472 112.264 123.24 112.392 123.816 112.648C124.424 112.872 124.92 113.208 125.304 113.656C125.688 114.072 126.184 114.712 126.792 115.576C127.592 114.552 128.616 113.752 129.864 113.176C131.144 112.6 132.456 112.312 133.8 112.312C135.4 112.312 136.84 112.968 138.12 114.28C139.4 115.56 140.264 117.048 140.712 118.744C140.936 119.608 141.048 121.272 141.048 123.736L141.24 126.52C141.4 128.184 141.944 129.192 142.872 129.544C143.96 129.864 144.504 130.2 144.504 130.552C144.504 131.32 144.312 131.88 143.928 132.232C143.64 132.424 143.24 132.632 142.728 132.856C142.216 133.08 141.816 133.192 141.528 133.192C139.8 133.192 138.568 132.568 137.832 131.32ZM169.743 130.696C169.743 131.4 169.359 131.992 168.591 132.472C167.855 132.952 167.167 133.192 166.527 133.192C165.311 133.192 164.335 133.048 163.599 132.76C162.895 132.44 162.239 131.864 161.631 131.032C160.799 131.768 159.663 132.328 158.223 132.712C156.783 133.064 155.455 133.24 154.239 133.24C152.255 133.24 150.623 132.712 149.343 131.656C148.063 130.568 147.423 128.984 147.423 126.904C147.423 126.008 147.663 125.192 148.143 124.456C148.623 123.688 149.279 123.016 150.111 122.44C151.039 121.832 152.095 121.368 153.279 121.048C154.463 120.696 155.695 120.52 156.975 120.52C157.647 120.52 158.447 120.648 159.375 120.904C160.303 121.16 161.023 121.432 161.535 121.72V120.952C161.535 119.224 161.119 118.04 160.287 117.4C159.455 116.728 158.111 116.392 156.255 116.392C155.711 116.392 155.167 116.504 154.623 116.728C154.111 116.952 153.519 117.256 152.847 117.64C151.951 118.12 151.103 118.36 150.303 118.36C150.015 118.36 149.743 118.168 149.487 117.784C149.231 117.368 149.103 117 149.103 116.68C149.103 115.752 149.535 114.952 150.399 114.28C151.295 113.608 152.351 113.112 153.567 112.792C154.783 112.44 155.871 112.264 156.831 112.264C157.791 112.264 158.895 112.456 160.143 112.84C161.391 113.192 162.415 113.688 163.215 114.328C164.175 115.16 164.911 116.136 165.423 117.256C165.967 118.344 166.239 119.544 166.239 120.856C166.239 121.272 166.207 121.896 166.143 122.728C166.079 123.624 166.047 124.392 166.047 125.032C166.047 125.32 166.015 125.752 165.951 126.328C165.887 127.032 165.855 127.592 165.855 128.008C165.855 128.392 165.999 128.728 166.287 129.016C166.575 129.272 166.911 129.4 167.295 129.4L168.639 129.352C168.991 129.352 169.263 129.48 169.455 129.736C169.647 129.992 169.743 130.312 169.743 130.696ZM154.287 129.448C155.663 129.448 156.815 129.304 157.743 129.016C158.671 128.728 159.791 128.2 161.103 127.432C161.231 126.888 161.311 126.168 161.343 125.272C159.583 124.44 158.127 124.024 156.975 124.024C155.663 124.024 154.495 124.264 153.471 124.744C152.447 125.224 151.935 126.072 151.935 127.288C151.935 127.896 152.191 128.408 152.703 128.824C153.215 129.24 153.743 129.448 154.287 129.448ZM172.935 116.296C172.487 116.232 172.119 116.056 171.831 115.768C171.575 115.448 171.447 115.064 171.447 114.616C171.447 114.04 171.671 113.56 172.119 113.176C172.215 113.08 172.375 113 172.599 112.936C172.823 112.84 172.999 112.76 173.127 112.696C173.831 112.472 174.279 112.296 174.471 112.168C175.207 111.72 175.703 110.984 175.959 109.96C176.215 108.744 176.375 107.912 176.439 107.464C176.503 106.76 176.727 106.232 177.111 105.88C177.527 105.496 178.039 105.304 178.647 105.304C179.447 105.304 180.007 105.512 180.327 105.928C180.647 106.344 180.807 107.112 180.807 108.232C180.807 109.704 180.455 111.096 179.751 112.408C180.199 112.408 180.935 112.376 181.959 112.312C183.495 112.248 184.567 112.216 185.175 112.216C185.719 112.216 186.183 112.36 186.567 112.648C186.983 112.904 187.191 113.288 187.191 113.8C187.191 115.016 186.631 115.736 185.511 115.96C184.487 116.248 182.631 116.424 179.943 116.488C179.719 119.624 179.607 122.104 179.607 123.928C179.607 125.048 179.655 125.848 179.751 126.328C179.943 127.32 180.263 128.056 180.711 128.536C181.191 128.984 181.895 129.208 182.823 129.208C183.271 129.208 183.943 129.096 184.839 128.872C185.383 128.712 185.815 128.632 186.135 128.632C186.551 128.632 186.871 128.776 187.095 129.064C187.319 129.352 187.431 129.736 187.431 130.216C187.431 131.08 186.871 131.8 185.751 132.376C184.631 132.92 183.303 133.192 181.767 133.192C180.807 133.192 179.863 132.968 178.935 132.52C178.007 132.04 177.223 131.464 176.583 130.792C176.455 130.728 176.263 130.376 176.007 129.736C175.783 129.096 175.559 128.392 175.335 127.624C175.239 127.24 175.191 126.312 175.191 124.84C175.191 123.432 175.287 121 175.479 117.544L175.527 116.488C175.303 116.488 174.887 116.472 174.279 116.44C173.671 116.376 173.223 116.328 172.935 116.296ZM196.696 102.568C196.696 103.4 196.68 104.376 196.648 105.496C196.616 106.584 196.584 107.416 196.552 107.992C196.456 109.624 196.408 111.256 196.408 112.888C196.408 115.032 196.456 116.76 196.552 118.072C197.288 116.248 198.328 114.872 199.672 113.944C201.016 112.984 202.552 112.504 204.28 112.504C205.464 112.504 206.568 113.032 207.592 114.088C208.616 115.144 209.272 116.376 209.56 117.784C209.592 117.944 209.608 118.184 209.608 118.504C209.608 118.888 209.576 119.496 209.512 120.328C209.416 121 209.368 121.672 209.368 122.344C209.368 124.072 209.432 125.416 209.56 126.376C209.688 127.304 209.96 128.072 210.376 128.68C210.792 129.256 211.448 129.72 212.344 130.072C212.696 130.2 212.936 130.376 213.064 130.6C213.224 130.792 213.304 131.096 213.304 131.512C213.304 132.088 213 132.52 212.392 132.808C211.816 133.096 211.256 133.24 210.712 133.24C209.592 133.24 208.584 132.936 207.688 132.328C206.792 131.72 206.12 130.92 205.672 129.928C205.352 129.256 205.144 128.456 205.048 127.528C204.952 126.6 204.904 125.512 204.904 124.264L204.952 120.088C204.952 117.816 204.216 116.68 202.744 116.68C201.688 116.68 200.664 117.544 199.672 119.272C198.68 121 197.88 123.032 197.272 125.368C196.664 127.704 196.36 129.624 196.36 131.128C196.36 131.832 196.136 132.36 195.688 132.712C195.272 133.032 194.84 133.192 194.392 133.192C193.688 133.192 193.048 132.984 192.472 132.568C191.896 132.12 191.608 131.624 191.608 131.08C191.832 128.68 191.944 124.664 191.944 119.032C191.944 118.008 191.864 114.216 191.704 107.656L191.56 103.24C191.56 102.536 191.88 101.928 192.52 101.416C193.16 100.872 193.88 100.6 194.68 100.6C195.384 100.6 195.896 100.76 196.216 101.08C196.536 101.4 196.696 101.896 196.696 102.568Z" fill="black"/>
</g>
<g filter="url(#filter1_d_1_21)">
<path d="M128.398 58.168C127.054 60.472 125.23 62.84 122.926 65.272C120.622 67.704 117.678 70.584 114.094 73.912C110.702 77.112 108.814 78.936 108.43 79.384L105.166 82.36C106.446 82.616 108.846 82.744 112.366 82.744C113.774 82.744 115.822 82.488 118.51 81.976C121.07 81.464 122.958 81.208 124.174 81.208C125.198 81.208 126.35 81.368 127.63 81.688C128.974 82.008 130.222 82.488 131.374 83.128C131.95 83.384 132.43 83.896 132.814 84.664C133.198 85.368 133.39 86.04 133.39 86.68C133.39 87.512 133.102 88.44 132.526 89.464C131.95 90.488 131.278 91 130.51 91C129.806 91 128.878 90.872 127.726 90.616C125.998 90.296 124.782 90.136 124.078 90.136C121.838 90.136 118.862 90.296 115.15 90.616C110.03 91 106.254 91.192 103.822 91.192C100.75 91.192 98.3178 90.808 96.5258 90.04C94.7978 89.272 93.9338 87.832 93.9338 85.72C93.9338 84.12 94.7338 82.296 96.3338 80.248C97.9338 78.136 99.8858 75.928 102.19 73.624L103.534 72.184C104.558 71.16 106.286 69.624 108.718 67.576C111.15 65.464 113.006 63.8 114.286 62.584C115.566 61.304 116.622 59.96 117.454 58.552L102.094 58.648C99.5978 58.648 97.7418 58.36 96.5258 57.784C95.3738 57.208 94.7978 56.12 94.7978 54.52C94.7978 53.624 95.1178 52.792 95.7578 52.024C96.3978 51.192 97.2298 50.68 98.2538 50.488C100.558 50.168 105.262 50.008 112.366 50.008C119.47 50.008 124.366 50.36 127.054 51.064C127.758 51.32 128.302 51.8 128.686 52.504C129.134 53.144 129.358 53.816 129.358 54.52C129.358 55.672 129.038 56.888 128.398 58.168ZM138.753 53.848C138.817 52.888 139.201 51.896 139.905 50.872C140.673 49.848 141.665 49.336 142.881 49.336C144.161 49.336 145.281 49.688 146.241 50.392C147.201 51.096 147.873 51.832 148.257 52.6C148.513 53.112 149.569 54.488 151.425 56.728C152.385 57.816 153.281 58.872 154.113 59.896C154.433 60.28 154.881 60.824 155.457 61.528C156.033 62.232 156.577 62.872 157.089 63.448C158.625 61.464 160.033 59.448 161.313 57.4L165.057 51.64C166.337 49.912 167.873 49.048 169.665 49.048C170.945 49.048 171.969 49.368 172.737 50.008C173.505 50.584 173.889 51.288 173.889 52.12C173.825 53.144 173.409 54.424 172.641 55.96C171.809 57.624 170.497 59.768 168.705 62.392C166.913 65.016 164.961 67.576 162.849 70.072L164.577 72.28C166.689 75.032 168.513 77.304 170.049 79.096C171.649 80.888 173.121 82.136 174.465 82.84C174.721 82.968 175.201 83.192 175.905 83.512C176.609 83.832 177.153 84.216 177.537 84.664C177.921 85.048 178.113 85.496 178.113 86.008C178.113 87.416 177.537 88.632 176.385 89.656C175.297 90.68 174.017 91.192 172.545 91.192C171.201 91.192 169.633 90.392 167.841 88.792C166.113 87.128 163.937 84.728 161.313 81.592C159.265 79.16 157.889 77.592 157.185 76.888C152.577 83.416 149.025 87.768 146.529 89.944C145.953 90.584 145.185 91.096 144.225 91.48C143.329 91.864 142.465 92.056 141.633 92.056C140.481 92.056 139.457 91.8 138.561 91.288C137.665 90.776 137.249 89.912 137.313 88.696C137.313 88.376 137.537 87.896 137.985 87.256C138.497 86.552 138.785 86.136 138.849 86.008C139.873 84.344 141.985 81.848 145.185 78.52C147.489 76.088 149.441 73.624 151.041 71.128L146.241 64.6C141.249 59.608 138.753 56.024 138.753 53.848ZM219.458 58.936C219.458 60.28 219.17 61.304 218.594 62.008C218.082 62.712 217.218 63.064 216.002 63.064C215.106 63.064 214.338 62.84 213.698 62.392C213.122 61.944 212.354 61.176 211.394 60.088C210.626 59.256 209.73 58.584 208.706 58.072C207.746 57.56 206.882 57.304 206.114 57.304C202.21 57.304 199.394 58.136 197.666 59.8C196.578 60.952 195.682 62.488 194.978 64.408C194.274 66.264 193.922 68.184 193.922 70.168C193.922 73.048 194.338 75.352 195.17 77.08C196.002 78.808 197.474 80.28 199.586 81.496C200.354 81.944 201.442 82.328 202.85 82.648C204.258 82.904 205.41 83.032 206.306 83.032C207.522 83.032 208.802 82.712 210.146 82.072C211.49 81.368 212.642 80.472 213.602 79.384C214.818 77.976 216.29 77.272 218.018 77.272C218.722 77.272 219.522 77.624 220.418 78.328C221.378 79.032 221.858 79.864 221.858 80.824C221.858 82.744 220.93 84.536 219.074 86.2C217.282 87.8 215.074 89.08 212.45 90.04C209.826 90.936 207.394 91.384 205.154 91.384C201.378 91.384 197.858 90.52 194.594 88.792C191.394 87.064 188.834 84.696 186.914 81.688C184.994 78.616 184.034 75.16 184.034 71.32C184.034 67.992 184.642 64.76 185.858 61.624C187.138 58.488 188.834 55.928 190.946 53.944C192.674 52.344 194.818 51.16 197.378 50.392C199.938 49.624 202.626 49.24 205.442 49.24C207.426 49.24 209.474 49.624 211.586 50.392C213.698 51.16 215.394 52.184 216.674 53.464C218.53 55.32 219.458 57.144 219.458 58.936Z" fill="black"/>
</g>
<defs>
<filter id="filter0_d_1_21" x="101.768" y="100.6" width="115.536" height="40.64" filterUnits="userSpaceOnUse" color-interpolation-filters="sRGB">
<feFlood flood-opacity="0" result="BackgroundImageFix"/>
<feColorMatrix in="SourceAlpha" type="matrix" values="0 0 0 0 0 0 0 0 0 0 0 0 0 0 0 0 0 0 127 0" result="hardAlpha"/>
<feOffset dy="4"/>
<feGaussianBlur stdDeviation="2"/>
<feComposite in2="hardAlpha" operator="out"/>
<feColorMatrix type="matrix" values="0 0 0 0 0 0 0 0 0 0 0 0 0 0 0 0 0 0 0.25 0"/>
<feBlend mode="normal" in2="BackgroundImageFix" result="effect1_dropShadow_1_21"/>
<feBlend mode="normal" in="SourceGraphic" in2="effect1_dropShadow_1_21" result="shape"/>
</filter>
<filter id="filter1_d_1_21" x="91.9337" y="47.048" width="139.924" height="55.008" filterUnits="userSpaceOnUse" color-interpolation-filters="sRGB">
<feFlood flood-opacity="0" result="BackgroundImageFix"/>
<feColorMatrix in="SourceAlpha" type="matrix" values="0 0 0 0 0 0 0 0 0 0 0 0 0 0 0 0 0 0 127 0" result="hardAlpha"/>
<feOffset dx="4" dy="4"/>
<feGaussianBlur stdDeviation="3"/>
<feComposite in2="hardAlpha" operator="out"/>
<feColorMatrix type="matrix" values="0 0 0 0 0 0 0 0 0 0 0 0 0 0 0 0 0 0 0.25 0"/>
<feBlend mode="normal" in2="BackgroundImageFix" result="effect1_dropShadow_1_21"/>
<feBlend mode="normal" in="SourceGraphic" in2="effect1_dropShadow_1_21" result="shape"/>
</filter>
<linearGradient id="paint0_linear_1_21" x1="320" y1="3.00001" x2="2.50001" y2="170.5" gradientUnits="userSpaceOnUse">
<stop stop-color="#FF9EA0"/>
<stop offset="1" stop-color="#FFBABB"/>
</linearGradient>
</defs>
</svg>
