<svg width="142" height="142" viewBox="0 0 142 142" fill="none" xmlns="http://www.w3.org/2000/svg">
<g filter="url(#filter0_d_1_21)">
<path d="M47.832 131.32C47.352 130.424 47.048 129.432 46.92 128.344C46.792 127.224 46.728 125.688 46.728 123.736C46.728 121.88 46.472 120.264 45.96 118.888C45.448 117.512 44.392 116.824 42.792 116.824C42.184 116.824 41.576 117.016 40.968 117.4C40.392 117.752 39.96 118.2 39.672 118.744C39.224 119.608 38.92 120.552 38.76 121.576C38.6 122.568 38.52 123.72 38.52 125.032C38.52 125.864 38.568 126.712 38.664 127.576C38.664 127.832 38.68 128.248 38.712 128.824C38.776 129.368 38.808 129.864 38.808 130.312C38.808 132.232 38.136 133.192 36.792 133.192C35.032 133.192 34.104 132.264 34.008 130.408C34.008 129.096 34.024 128.392 34.056 128.296V126.232C34.056 125.08 34.008 123.96 33.912 122.872C33.816 121.784 33.704 120.968 33.576 120.424C33.288 119.368 32.904 118.552 32.424 117.976C31.976 117.4 31.256 117.112 30.264 117.112C28.856 117.112 27.72 117.72 26.856 118.936C26.248 119.896 25.848 121.064 25.656 122.44C25.464 124.2 25.32 125.592 25.224 126.616C25.16 127.608 25.128 128.76 25.128 130.072C25.128 131 24.968 131.752 24.648 132.328C24.36 132.904 23.8 133.192 22.968 133.192C22.36 133.192 21.72 133.032 21.048 132.712C20.408 132.36 20.088 131.896 20.088 131.32C20.088 130.712 20.152 130.104 20.28 129.496C20.568 127.672 20.712 124.408 20.712 119.704C20.712 118.936 20.52 118.2 20.136 117.496C19.784 116.76 19.352 116.392 18.84 116.392C18.712 116.392 18.472 116.456 18.12 116.584C17.8 116.712 17.56 116.776 17.4 116.776C16.984 116.776 16.6 116.584 16.248 116.2C15.928 115.816 15.768 115.496 15.768 115.24C15.768 114.44 16.152 113.768 16.92 113.224C17.72 112.648 18.552 112.36 19.416 112.36C20.6 112.36 21.608 112.728 22.44 113.464C23.272 114.2 23.912 115.224 24.36 116.536C25.096 115.256 26.088 114.232 27.336 113.464C28.584 112.664 29.976 112.264 31.512 112.264C32.472 112.264 33.24 112.392 33.816 112.648C34.424 112.872 34.92 113.208 35.304 113.656C35.688 114.072 36.184 114.712 36.792 115.576C37.592 114.552 38.616 113.752 39.864 113.176C41.144 112.6 42.456 112.312 43.8 112.312C45.4 112.312 46.84 112.968 48.12 114.28C49.4 115.56 50.264 117.048 50.712 118.744C50.936 119.608 51.048 121.272 51.048 123.736L51.24 126.52C51.4 128.184 51.944 129.192 52.872 129.544C53.96 129.864 54.504 130.2 54.504 130.552C54.504 131.32 54.312 131.88 53.928 132.232C53.64 132.424 53.24 132.632 52.728 132.856C52.216 133.08 51.816 133.192 51.528 133.192C49.8 133.192 48.568 132.568 47.832 131.32ZM79.7434 130.696C79.7434 131.4 79.3594 131.992 78.5914 132.472C77.8554 132.952 77.1674 133.192 76.5274 133.192C75.3114 133.192 74.3354 133.048 73.5994 132.76C72.8954 132.44 72.2394 131.864 71.6314 131.032C70.7994 131.768 69.6634 132.328 68.2234 132.712C66.7834 133.064 65.4554 133.24 64.2394 133.24C62.2554 133.24 60.6234 132.712 59.3434 131.656C58.0634 130.568 57.4234 128.984 57.4234 126.904C57.4234 126.008 57.6634 125.192 58.1434 124.456C58.6234 123.688 59.2794 123.016 60.1114 122.44C61.0394 121.832 62.0954 121.368 63.2794 121.048C64.4634 120.696 65.6954 120.52 66.9754 120.52C67.6474 120.52 68.4474 120.648 69.3754 120.904C70.3034 121.16 71.0234 121.432 71.5354 121.72V120.952C71.5354 119.224 71.1194 118.04 70.2874 117.4C69.4554 116.728 68.1114 116.392 66.2554 116.392C65.7114 116.392 65.1674 116.504 64.6234 116.728C64.1114 116.952 63.5194 117.256 62.8474 117.64C61.9514 118.12 61.1034 118.36 60.3034 118.36C60.0154 118.36 59.7434 118.168 59.4874 117.784C59.2314 117.368 59.1034 117 59.1034 116.68C59.1034 115.752 59.5354 114.952 60.3994 114.28C61.2954 113.608 62.3514 113.112 63.5674 112.792C64.7834 112.44 65.8714 112.264 66.8314 112.264C67.7914 112.264 68.8954 112.456 70.1434 112.84C71.3914 113.192 72.4154 113.688 73.2154 114.328C74.1754 115.16 74.9114 116.136 75.4234 117.256C75.9674 118.344 76.2394 119.544 76.2394 120.856C76.2394 121.272 76.2074 121.896 76.1434 122.728C76.0794 123.624 76.0474 124.392 76.0474 125.032C76.0474 125.32 76.0154 125.752 75.9514 126.328C75.8874 127.032 75.8554 127.592 75.8554 128.008C75.8554 128.392 75.9994 128.728 76.2874 129.016C76.5754 129.272 76.9114 129.4 77.2954 129.4L78.6394 129.352C78.9914 129.352 79.2634 129.48 79.4554 129.736C79.6474 129.992 79.7434 130.312 79.7434 130.696ZM64.2874 129.448C65.6634 129.448 66.8154 129.304 67.7434 129.016C68.6714 128.728 69.7914 128.2 71.1034 127.432C71.2314 126.888 71.3114 126.168 71.3434 125.272C69.5834 124.44 68.1274 124.024 66.9754 124.024C65.6634 124.024 64.4954 124.264 63.4714 124.744C62.4474 125.224 61.9354 126.072 61.9354 127.288C61.9354 127.896 62.1914 128.408 62.7034 128.824C63.2154 129.24 63.7434 129.448 64.2874 129.448ZM82.9346 116.296C82.4866 116.232 82.1186 116.056 81.8306 115.768C81.5746 115.448 81.4466 115.064 81.4466 114.616C81.4466 114.04 81.6706 113.56 82.1186 113.176C82.2146 113.08 82.3746 113 82.5986 112.936C82.8226 112.84 82.9986 112.76 83.1266 112.696C83.8306 112.472 84.2786 112.296 84.4706 112.168C85.2066 111.72 85.7026 110.984 85.9586 109.96C86.2146 108.744 86.3746 107.912 86.4386 107.464C86.5026 106.76 86.7266 106.232 87.1106 105.88C87.5266 105.496 88.0386 105.304 88.6466 105.304C89.4466 105.304 90.0066 105.512 90.3266 105.928C90.6466 106.344 90.8066 107.112 90.8066 108.232C90.8066 109.704 90.4546 111.096 89.7506 112.408C90.1986 112.408 90.9346 112.376 91.9586 112.312C93.4946 112.248 94.5666 112.216 95.1746 112.216C95.7186 112.216 96.1826 112.36 96.5666 112.648C96.9826 112.904 97.1906 113.288 97.1906 113.8C97.1906 115.016 96.6306 115.736 95.5106 115.96C94.4866 116.248 92.6306 116.424 89.9426 116.488C89.7186 119.624 89.6066 122.104 89.6066 123.928C89.6066 125.048 89.6546 125.848 89.7506 126.328C89.9426 127.32 90.2626 128.056 90.7106 128.536C91.1906 128.984 91.8946 129.208 92.8226 129.208C93.2706 129.208 93.9426 129.096 94.8386 128.872C95.3826 128.712 95.8146 128.632 96.1346 128.632C96.5506 128.632 96.8706 128.776 97.0946 129.064C97.3186 129.352 97.4306 129.736 97.4306 130.216C97.4306 131.08 96.8706 131.8 95.7506 132.376C94.6306 132.92 93.3026 133.192 91.7666 133.192C90.8066 133.192 89.8626 132.968 88.9346 132.52C88.0066 132.04 87.2226 131.464 86.5826 130.792C86.4546 130.728 86.2626 130.376 86.0066 129.736C85.7826 129.096 85.5586 128.392 85.3346 127.624C85.2386 127.24 85.1906 126.312 85.1906 124.84C85.1906 123.432 85.2866 121 85.4786 117.544L85.5266 116.488C85.3026 116.488 84.8866 116.472 84.2786 116.44C83.6706 116.376 83.2226 116.328 82.9346 116.296ZM106.696 102.568C106.696 103.4 106.68 104.376 106.648 105.496C106.616 106.584 106.584 107.416 106.552 107.992C106.456 109.624 106.408 111.256 106.408 112.888C106.408 115.032 106.456 116.76 106.552 118.072C107.288 116.248 108.328 114.872 109.672 113.944C111.016 112.984 112.552 112.504 114.28 112.504C115.464 112.504 116.568 113.032 117.592 114.088C118.616 115.144 119.272 116.376 119.56 117.784C119.592 117.944 119.608 118.184 119.608 118.504C119.608 118.888 119.576 119.496 119.512 120.328C119.416 121 119.368 121.672 119.368 122.344C119.368 124.072 119.432 125.416 119.56 126.376C119.688 127.304 119.96 128.072 120.376 128.68C120.792 129.256 121.448 129.72 122.344 130.072C122.696 130.2 122.936 130.376 123.064 130.6C123.224 130.792 123.304 131.096 123.304 131.512C123.304 132.088 123 132.52 122.392 132.808C121.816 133.096 121.256 133.24 120.712 133.24C119.592 133.24 118.584 132.936 117.688 132.328C116.792 131.72 116.12 130.92 115.672 129.928C115.352 129.256 115.144 128.456 115.048 127.528C114.952 126.6 114.904 125.512 114.904 124.264L114.952 120.088C114.952 117.816 114.216 116.68 112.744 116.68C111.688 116.68 110.664 117.544 109.672 119.272C108.68 121 107.88 123.032 107.272 125.368C106.664 127.704 106.36 129.624 106.36 131.128C106.36 131.832 106.136 132.36 105.688 132.712C105.272 133.032 104.84 133.192 104.392 133.192C103.688 133.192 103.048 132.984 102.472 132.568C101.896 132.12 101.608 131.624 101.608 131.08C101.832 128.68 101.944 124.664 101.944 119.032C101.944 118.008 101.864 114.216 101.704 107.656L101.56 103.24C101.56 102.536 101.88 101.928 102.52 101.416C103.16 100.872 103.88 100.6 104.68 100.6C105.384 100.6 105.896 100.76 106.216 101.08C106.536 101.4 106.696 101.896 106.696 102.568Z" fill="#BFFFFF"/>
</g>
<g filter="url(#filter1_d_1_21)">
<path d="M38.3978 58.168C37.0538 60.472 35.2298 62.84 32.9258 65.272C30.6218 67.704 27.6778 70.584 24.0938 73.912C20.7018 77.112 18.8138 78.936 18.4298 79.384L15.1658 82.36C16.4458 82.616 18.8458 82.744 22.3658 82.744C23.7738 82.744 25.8218 82.488 28.5098 81.976C31.0698 81.464 32.9578 81.208 34.1738 81.208C35.1978 81.208 36.3498 81.368 37.6298 81.688C38.9738 82.008 40.2218 82.488 41.3738 83.128C41.9498 83.384 42.4298 83.896 42.8138 84.664C43.1978 85.368 43.3898 86.04 43.3898 86.68C43.3898 87.512 43.1018 88.44 42.5258 89.464C41.9498 90.488 41.2778 91 40.5098 91C39.8058 91 38.8778 90.872 37.7258 90.616C35.9978 90.296 34.7818 90.136 34.0778 90.136C31.8378 90.136 28.8618 90.296 25.1498 90.616C20.0298 91 16.2538 91.192 13.8218 91.192C10.7498 91.192 8.31775 90.808 6.52575 90.04C4.79775 89.272 3.93375 87.832 3.93375 85.72C3.93375 84.12 4.73375 82.296 6.33375 80.248C7.93375 78.136 9.88575 75.928 12.1898 73.624L13.5338 72.184C14.5578 71.16 16.2858 69.624 18.7178 67.576C21.1498 65.464 23.0058 63.8 24.2858 62.584C25.5658 61.304 26.6218 59.96 27.4538 58.552L12.0938 58.648C9.59775 58.648 7.74175 58.36 6.52575 57.784C5.37375 57.208 4.79775 56.12 4.79775 54.52C4.79775 53.624 5.11775 52.792 5.75775 52.024C6.39775 51.192 7.22975 50.68 8.25375 50.488C10.5578 50.168 15.2618 50.008 22.3658 50.008C29.4698 50.008 34.3658 50.36 37.0538 51.064C37.7578 51.32 38.3018 51.8 38.6858 52.504C39.1338 53.144 39.3578 53.816 39.3578 54.52C39.3578 55.672 39.0378 56.888 38.3978 58.168ZM48.753 53.848C48.817 52.888 49.201 51.896 49.905 50.872C50.673 49.848 51.665 49.336 52.881 49.336C54.161 49.336 55.281 49.688 56.241 50.392C57.201 51.096 57.873 51.832 58.257 52.6C58.513 53.112 59.569 54.488 61.425 56.728C62.385 57.816 63.281 58.872 64.113 59.896C64.433 60.28 64.881 60.824 65.457 61.528C66.033 62.232 66.577 62.872 67.089 63.448C68.625 61.464 70.033 59.448 71.313 57.4L75.057 51.64C76.337 49.912 77.873 49.048 79.665 49.048C80.945 49.048 81.969 49.368 82.737 50.008C83.505 50.584 83.889 51.288 83.889 52.12C83.825 53.144 83.409 54.424 82.641 55.96C81.809 57.624 80.497 59.768 78.705 62.392C76.913 65.016 74.961 67.576 72.849 70.072L74.577 72.28C76.689 75.032 78.513 77.304 80.049 79.096C81.649 80.888 83.121 82.136 84.465 82.84C84.721 82.968 85.201 83.192 85.905 83.512C86.609 83.832 87.153 84.216 87.537 84.664C87.921 85.048 88.113 85.496 88.113 86.008C88.113 87.416 87.537 88.632 86.385 89.656C85.297 90.68 84.017 91.192 82.545 91.192C81.201 91.192 79.633 90.392 77.841 88.792C76.113 87.128 73.937 84.728 71.313 81.592C69.265 79.16 67.889 77.592 67.185 76.888C62.577 83.416 59.025 87.768 56.529 89.944C55.953 90.584 55.185 91.096 54.225 91.48C53.329 91.864 52.465 92.056 51.633 92.056C50.481 92.056 49.457 91.8 48.561 91.288C47.665 90.776 47.249 89.912 47.313 88.696C47.313 88.376 47.537 87.896 47.985 87.256C48.497 86.552 48.785 86.136 48.849 86.008C49.873 84.344 51.985 81.848 55.185 78.52C57.489 76.088 59.441 73.624 61.041 71.128L56.241 64.6C51.249 59.608 48.753 56.024 48.753 53.848ZM129.458 58.936C129.458 60.28 129.17 61.304 128.594 62.008C128.082 62.712 127.218 63.064 126.002 63.064C125.106 63.064 124.338 62.84 123.698 62.392C123.122 61.944 122.354 61.176 121.394 60.088C120.626 59.256 119.73 58.584 118.706 58.072C117.746 57.56 116.882 57.304 116.114 57.304C112.21 57.304 109.394 58.136 107.666 59.8C106.578 60.952 105.682 62.488 104.978 64.408C104.274 66.264 103.922 68.184 103.922 70.168C103.922 73.048 104.338 75.352 105.17 77.08C106.002 78.808 107.474 80.28 109.586 81.496C110.354 81.944 111.442 82.328 112.85 82.648C114.258 82.904 115.41 83.032 116.306 83.032C117.522 83.032 118.802 82.712 120.146 82.072C121.49 81.368 122.642 80.472 123.602 79.384C124.818 77.976 126.29 77.272 128.018 77.272C128.722 77.272 129.522 77.624 130.418 78.328C131.378 79.032 131.858 79.864 131.858 80.824C131.858 82.744 130.93 84.536 129.074 86.2C127.282 87.8 125.074 89.08 122.45 90.04C119.826 90.936 117.394 91.384 115.154 91.384C111.378 91.384 107.858 90.52 104.594 88.792C101.394 87.064 98.8343 84.696 96.9143 81.688C94.9943 78.616 94.0343 75.16 94.0343 71.32C94.0343 67.992 94.6423 64.76 95.8583 61.624C97.1383 58.488 98.8343 55.928 100.946 53.944C102.674 52.344 104.818 51.16 107.378 50.392C109.938 49.624 112.626 49.24 115.442 49.24C117.426 49.24 119.474 49.624 121.586 50.392C123.698 51.16 125.394 52.184 126.674 53.464C128.53 55.32 129.458 57.144 129.458 58.936Z" fill="#BFFFFF"/>
</g>
<defs>
<filter id="filter0_d_1_21" x="11.768" y="100.6" width="115.536" height="40.64" filterUnits="userSpaceOnUse" color-interpolation-filters="sRGB">
<feFlood flood-opacity="0" result="BackgroundImageFix"/>
<feColorMatrix in="SourceAlpha" type="matrix" values="0 0 0 0 0 0 0 0 0 0 0 0 0 0 0 0 0 0 127 0" result="hardAlpha"/>
<feOffset dy="4"/>
<feGaussianBlur stdDeviation="2"/>
<feComposite in2="hardAlpha" operator="out"/>
<feColorMatrix type="matrix" values="0 0 0 0 0 0 0 0 0 0 0 0 0 0 0 0 0 0 0.25 0"/>
<feBlend mode="normal" in2="BackgroundImageFix" result="effect1_dropShadow_1_21"/>
<feBlend mode="normal" in="SourceGraphic" in2="effect1_dropShadow_1_21" result="shape"/>
</filter>
<filter id="filter1_d_1_21" x="1.93375" y="47.048" width="139.924" height="55.008" filterUnits="userSpaceOnUse" color-interpolation-filters="sRGB">
<feFlood flood-opacity="0" result="BackgroundImageFix"/>
<feColorMatrix in="SourceAlpha" type="matrix" values="0 0 0 0 0 0 0 0 0 0 0 0 0 0 0 0 0 0 127 0" result="hardAlpha"/>
<feOffset dx="4" dy="4"/>
<feGaussianBlur stdDeviation="3"/>
<feComposite in2="hardAlpha" operator="out"/>
<feColorMatrix type="matrix" values="0 0 0 0 0 0 0 0 0 0 0 0 0 0 0 0 0 0 0.25 0"/>
<feBlend mode="normal" in2="BackgroundImageFix" result="effect1_dropShadow_1_21"/>
<feBlend mode="normal" in="SourceGraphic" in2="effect1_dropShadow_1_21" result="shape"/>
</filter>
</defs>
</svg>
